# xmcd
#
# Track frame offsets: 
#        150
#        4500
#        32334
#        57299
#        79349
#        98750
#        125459
#        145711
#        162964
#        169176
#        186334
#        203321
#        221513
#        241565
#        262935
#        277844
#        291310
#        308198
#
# Disc length: 4323 seconds
#
# Revision: 0
# Processed by: cddbd v1.5.2PL0 Copyright (c) Steve Scherf et al.
# Submitted via: ExactAudioCopy v1.0b4
#
DISCID=e810e112
DTITLE=B.B. and The Underground Kingz - The Trill Is Gone
DYEAR=2015
DGENRE=Blues
TTITLE0=Pimptro
TTITLE1=The Trill Is Gone feat. Mr. 3-2 and Ronnie Spencer
TTITLE2=Make Love To My Car
TTITLE3=Country Cousins feat. Talib Kweli and Raheem and DeVaughn
TTITLE4=They Luv That feat. Bubba Sparxxx
TTITLE5=Int'l Blues Players Anthem feat. Outkast and Eric Clapton
TTITLE6=Lil' Ghetto Woman feat. Lil' Wayne and Marlena Shaw
TTITLE7=What Means The World to Pimp feat. Ludacris
TTITLE8=Intermission
TTITLE9=Pop It For Pimp feat. Juvenile
TTITLE10=Same Old Story feat. P.O.P.
TTITLE11=I Want A White Gurl So Bad
TTITLE12=The Truth Hurts feat. Scarface
TTITLE13=That's Gangsta Life
TTITLE14=Pourin' Up
TTITLE15=Get Out The Way
TTITLE16=Shoutro
TTITLE17=Smoke Sumthin' feat. Trill A.G. (Bonus)
EXTD=
EXTT0=
EXTT1=
EXTT2=
EXTT3=
EXTT4=
EXTT5=
EXTT6=
EXTT7=
EXTT8=
EXTT9=
EXTT10=
EXTT11=
EXTT12=
EXTT13=
EXTT14=
EXTT15=
EXTT16=
EXTT17=
PLAYORDER=
